<svg xmlns="http://www.w3.org/2000/svg" data-v-423bf9ae="" viewBox="0 0 90 90" class="iconLeft"><defs data-v-423bf9ae=""><linearGradient data-v-423bf9ae="" gradientTransform="rotate(25)" id="66b84dff-2aa3-4723-a15d-e8707513b3f1" x1="0%" y1="0%" x2="100%" y2="0%"><stop data-v-423bf9ae="" offset="0%" style="stop-color: rgb(235, 76, 0); stop-opacity: 1;"/><stop data-v-423bf9ae="" offset="100%" style="stop-color: rgb(242, 169, 0); stop-opacity: 1;"/></linearGradient></defs><g data-v-423bf9ae="" id="ca1f2df5-8418-4f3b-990c-51ec2d25295f" transform="matrix(1.5490533969650242,0,0,1.5490533969650242,-3.724614633494255,-3.592254903560381)" stroke="none" fill="url(#66b84dff-2aa3-4723-a15d-e8707513b3f1)"><path d="M23 33c-1.7 0-3 1.3-3 3s1.3 3 3 3c1.6 0 2.9-1.3 3-2.8-1.2-.7-2.1-1.8-2.6-3.1-.2-.1-.3-.1-.4-.1zM14 33.4L4.4 43H14zM25 59c-1.3 0-2.4-.8-2.8-2H3v4h58v-4H27.8c-.4 1.2-1.5 2-2.8 2zM22 51h-2.2c-.4 1.2-1.5 2-2.8 2s-2.4-.8-2.8-2H3v4h19v-4zM28 51h33v4H28zM28 45h33v4H28zM34.4 19c1.3.1 2.4.9 3.1 2 2.8-1.7 5.5-2.1 7-2 1.1-.6 2.1-1.5 2.9-2.4.4-.5.8-1.1 1-1.8l-1.9-1.9c-.6-.6-1.3-.9-2.1-.9H42V9.7c0-.8-.3-1.6-.9-2.1l-1.9-1.9c-.6.3-1.3.6-1.8 1-1.8 1.5-3.1 3.7-3.7 6 .8 1.3 1.3 2.8 1.3 4.4 0 .6-.2 1.3-.6 1.9zm8.6-5h2v2h-2v-2zm-6-5h2v2h-2V9zm0 5h2v2h-2v-2zM19 31h4c0-1.5.6-2.9 1.5-4H19c-1.1 0-2 .9-2 2s.9 2 2 2zM25 19h6c1.1 0 2-.9 2-2 0-1.7-.6-3.2-1.8-4.4l-.9-.9v.1c-1 2-3 3.2-5.2 3.2-1.1 0-2 .9-2 2s.8 2 1.9 2zM22 25h11.3c.8-1.1 1.6-2 2.5-2.7-.3-.7-1-1.3-1.9-1.3h-12c-1.1 0-2 .9-2 2s1 2 2.1 2zM47.4 19.4c-.3.2-.5.4-.8.7.7.7 1.4 1.9 1.8 3.2.8 2.3 1.2 6-1.2 10.7-2.2 4.2-6.5 4.9-8.9 5h-.2c-.9 0-1.7-.2-2.5-.5-.9-.4-1.7-1-2.2-1.7-.3-.3-.5-.6-.7-1-1 .7-2.2 1.2-3.5 1.2-.3 0-.7 0-1-.1V43h33c-.6-9.6-5.7-18.5-13.8-23.6zm2.9 7.6l1.5-1.4c2.9 3.2 5.1 7 6.3 11.1l-1.9.5C55 33.4 53 29.9 50.3 27zm6.2 12.2l2-.4.3 2.1-2 .2c0-.6-.1-1.3-.3-1.9z"/><path d="M34.8 35.5c.4.5.9.8 1.5 1.1.6.3 1.2.4 1.9.4 1.9-.1 5.5-.7 7.2-4 3.8-7.1 0-11.6-.7-12-.7-.2-6.8-.2-10.6 6.6.6 1 1 2.1 1 3.3 0 1.2-.4 2.4-1 3.3.1.5.4 1 .7 1.3zm1.9-9.2c.1.1 1 1.1 1.7 2.5 1.9-3.1 4.4-5.9 4.8-6.4l1.5 1.3c-.6.7-1.5 1.8-2.4 3.1 1.4-.5 2.5-.7 2.6-.7l.1 1 .1 1s-3.3.5-5.5 2.6c-1 1.7-1.7 3.2-1.7 4.4h-2c0-1.1.4-2.4 1.1-3.8-.1-1.8-1.8-3.5-1.8-3.5l1.5-1.5zM44 9.7v.3h.3c1.3 0 2.6.5 3.5 1.5l2.5 2.5c.4-.1.6-.5.6-.9 0-1-.4-2-1.1-2.7L47.5 8c2.3-2 4.5-3.1 6.3-3.1v-2c-2.4 0-5 1.2-7.7 3.7l-2.4-2.4C43 3.4 42 3 41 3c-.4 0-.8.3-.9.6l2.5 2.5c.9 1 1.4 2.2 1.4 3.6z"/><circle cx="29" cy="31" r="4"/><path d="M17 51c.6 0 1-.4 1-1v-4c0-1.7 1.3-3 3-3s3 1.3 3 3v10c0 .6.4 1 1 1s1-.4 1-1V40c-.8.6-1.9 1-3 1-2.8 0-5-2.2-5-5 0-1.1.4-2.2 1-3-1.2 0-2.3-.5-3-1.4V50c0 .6.4 1 1 1z"/><path d="M20 46v3h2v-3c0-.6-.4-1-1-1s-1 .4-1 1zM3 45h11v4H3z"/></g></svg>